<svg xmlns="http://www.w3.org/2000/svg" xmlns:xlink="http://www.w3.org/1999/xlink" width="500" zoomAndPan="magnify" viewBox="0 0 375 374.999991" height="500" preserveAspectRatio="xMidYMid meet" version="1.0"><defs><g/></defs><path fill="#000000" d="M 126.007812 250.003906 C 124.515625 249.644531 123.496094 248.804688 122.792969 247.347656 C 121.617188 244.925781 122.316406 242.5 124.640625 240.917969 L 125.652344 240.230469 L 198.078125 240.308594 L 270.5 240.386719 L 271.363281 241.011719 C 272.703125 241.988281 273.691406 244.21875 273.441406 245.703125 C 273.175781 247.273438 272.191406 248.71875 270.851562 249.507812 L 269.785156 250.136719 L 198.355469 250.179688 C 159.070312 250.207031 126.511719 250.128906 126.007812 250.003906 Z M 99.539062 219.441406 C 97.839844 218.46875 97.152344 217.390625 96.988281 215.449219 C 96.808594 213.261719 97.707031 211.5625 99.515625 210.6875 C 100.769531 210.078125 101.246094 210.074219 152.898438 210.152344 C 204.996094 210.230469 205.011719 210.230469 205.851562 210.859375 C 207.476562 212.070312 207.949219 213.019531 207.949219 215.050781 C 207.949219 217.335938 207.136719 218.691406 205.238281 219.550781 C 204.039062 220.097656 202.058594 220.117188 152.359375 220.121094 L 100.730469 220.121094 Z M 129.3125 185.554688 C 125.9375 183.527344 126.113281 178.597656 129.621094 176.898438 C 130.921875 176.269531 131.027344 176.269531 175.835938 176.273438 C 218.972656 176.28125 220.792969 176.304688 221.992188 176.847656 C 223.601562 177.578125 224.613281 179.011719 224.785156 180.808594 C 224.964844 182.664062 224.3125 184.179688 222.855469 185.289062 L 221.707031 186.167969 L 130.582031 186.316406 Z M 129.3125 185.554688 " fill-opacity="1" fill-rule="nonzero"/><path fill="#000000" d="M 43.851562 253.195312 C 43.898438 253.152344 43.683594 252.316406 43.4375 251.320312 C 40.910156 241.078125 40.175781 237.300781 38.292969 229.726562 C 37.695312 226.878906 37.011719 223.65625 36.773438 222.566406 C 35.761719 217.964844 33.777344 205.332031 33.253906 200.179688 C 32.304688 190.859375 32.363281 178.089844 33.410156 166.628906 C 35.398438 144.875 40.871094 127.25 50.34375 112.101562 C 58.726562 98.703125 70.316406 87.101562 86.414062 76 C 94.578125 70.375 101.238281 67.203125 107.707031 65.867188 C 110.691406 65.25 115.847656 65.257812 118.640625 65.882812 C 121.394531 66.5 124.878906 68.085938 126.988281 69.675781 L 128.609375 70.902344 L 133.402344 69.542969 C 153.492188 63.847656 178.105469 61.410156 202.984375 62.65625 C 217.570312 63.386719 229.503906 65.097656 242.449219 68.3125 L 248.011719 69.695312 L 248.917969 69.046875 C 250.464844 67.945312 254.148438 66.398438 256.441406 65.882812 C 259.199219 65.265625 264.503906 65.253906 267.34375 65.855469 C 273.160156 67.085938 279.296875 69.882812 286.238281 74.464844 C 295.699219 80.703125 303.421875 87 310.457031 94.210938 C 322.394531 106.445312 329.941406 118.804688 335.382812 135.042969 C 337.332031 140.871094 339.691406 150.707031 339.691406 153.027344 C 339.691406 153.613281 339.890625 154.796875 340.132812 155.660156 C 340.617188 157.382812 341.296875 162.570312 341.882812 168.957031 C 342.097656 171.332031 342.261719 178.027344 342.269531 184.796875 C 342.277344 197.746094 342.097656 200.066406 340.121094 212.03125 C 336.890625 233.730469 324.769531 276.804688 322.816406 281.480469 C 322.167969 283.039062 319.839844 285.203125 318.558594 285.441406 C 317.152344 285.707031 315.289062 285.199219 314.15625 284.246094 C 312.605469 282.941406 312.304688 281.878906 312.296875 277.683594 C 312.292969 274.179688 311.714844 260.425781 310.605469 237.492188 C 310.355469 232.382812 309.945312 223.40625 309.691406 217.542969 C 307.902344 176.511719 307.875 176.128906 306.460938 171.910156 C 304.535156 166.175781 300.472656 161.136719 296.117188 159.082031 C 292.535156 157.386719 290.496094 156.988281 286.242188 157.144531 C 283.023438 157.261719 282.175781 157.414062 279.246094 158.410156 C 275.910156 159.539062 273.261719 160.84375 269.089844 163.40625 C 265.027344 165.902344 262.894531 165.523438 258.777344 161.570312 C 256.074219 158.976562 253.324219 155.21875 251.5625 151.707031 C 250.292969 149.175781 248.625 143.964844 247.992188 141.445312 C 247.007812 137.5 247.027344 134.464844 247.964844 128.089844 C 248.6875 123.179688 250.527344 118.011719 255.582031 105.847656 C 258.769531 98.171875 259.558594 94.519531 258.472656 92.421875 C 258.199219 91.894531 256.175781 89.605469 253.972656 87.335938 C 251.769531 85.066406 249.617188 82.777344 249.183594 82.25 C 248.519531 81.4375 247.804688 81.113281 244.625 80.171875 C 235.089844 77.34375 224.304688 75.382812 210.84375 74.019531 C 204.117188 73.339844 178.085938 73.226562 171.703125 73.851562 C 153.785156 75.609375 141.425781 78.0625 128.449219 82.445312 L 124.796875 83.679688 L 121.640625 86.796875 C 119.90625 88.511719 117.953125 90.578125 117.300781 91.386719 C 116.234375 92.714844 116.113281 93.035156 116.113281 94.59375 C 116.113281 96.179688 116.957031 100.023438 117.625 101.488281 C 119.742188 106.121094 124.640625 118.59375 124.640625 119.347656 C 124.640625 119.671875 124.835938 120.242188 125.070312 120.613281 C 125.691406 121.582031 127.007812 127.191406 127.414062 130.578125 C 128.273438 137.765625 126.679688 145.714844 123.019531 152.507812 C 120.988281 156.28125 119.492188 158.308594 116.589844 161.214844 C 112.253906 165.554688 110.183594 165.984375 105.996094 163.402344 C 99.117188 159.160156 94.289062 157.375 89.074219 157.148438 C 84.941406 156.972656 82.675781 157.363281 79.582031 158.789062 C 74.4375 161.160156 70.785156 165.4375 68.769531 171.453125 C 67.136719 176.324219 67.078125 177.03125 65.699219 209.621094 C 65.445312 215.652344 65.097656 223.261719 64.933594 226.527344 C 64.648438 232.140625 63.523438 256.886719 62.792969 273.589844 C 62.394531 282.753906 62.203125 283.390625 59.449219 284.804688 C 57.539062 285.785156 56.1875 285.742188 54.238281 284.648438 C 53.199219 284.0625 52.996094 283.722656 52.023438 280.929688 C 51.097656 278.273438 49.105469 271.671875 47.441406 265.746094 " fill-opacity="1" fill-rule="nonzero"/><path fill="#000000" d="M 221.90625 218.496094 L 239.535156 200.882812 C 258.53125 181.902344 257.917969 182.417969 260.59375 183.148438 C 262.28125 183.609375 265.753906 186.953125 266.261719 188.652344 C 267.046875 191.265625 267.460938 190.773438 248.453125 209.8125 L 231.054688 227.238281 C 225.609375 229.152344 221.367188 230.769531 220.054688 229.433594 C 218.742188 228.09375 220.148438 224.136719 221.90625 218.496094 Z M 221.90625 218.496094 " fill-opacity="1" fill-rule="nonzero"/><g fill="#000000" fill-opacity="1"><g transform="translate(106.199227, 326.579271)"><g><path d="M 7.390625 -17.109375 C 9.484375 -17.109375 11.101562 -16.59375 12.25 -15.5625 C 13.394531 -14.53125 13.96875 -13.125 13.96875 -11.34375 C 13.96875 -10.320312 13.769531 -9.363281 13.375 -8.46875 C 12.976562 -7.582031 12.332031 -6.851562 11.4375 -6.28125 C 10.550781 -5.707031 9.40625 -5.421875 8 -5.421875 L 5.578125 -5.421875 L 5.578125 0 L 2.203125 0 L 2.203125 -17.109375 Z M 7.96875 -8.703125 C 8.601562 -8.703125 9.113281 -8.84375 9.5 -9.125 C 9.894531 -9.414062 10.175781 -9.753906 10.34375 -10.140625 C 10.519531 -10.523438 10.609375 -10.894531 10.609375 -11.25 C 10.609375 -11.851562 10.425781 -12.4375 10.0625 -13 C 9.707031 -13.570312 9.019531 -13.859375 8 -13.859375 L 5.578125 -13.859375 L 5.578125 -8.703125 Z M 7.96875 -8.703125 "/></g></g></g><g fill="#000000" fill-opacity="1"><g transform="translate(130.278679, 326.579271)"><g><path d="M 10.671875 -3.34375 L 5 -3.34375 L 3.609375 0 L 0.28125 0 L 8 -17.78125 L 8.1875 -17.78125 L 15.90625 0 L 12 0 Z M 9.5625 -6.1875 L 7.90625 -10.34375 L 6.1875 -6.1875 Z M 9.5625 -6.1875 "/></g></g></g><g fill="#000000" fill-opacity="1"><g transform="translate(155.752367, 326.579271)"><g><path d="M 5.625 -6.75 L 5.625 -3.90625 L 1.25 -3.90625 L 1.25 -6.75 Z M 5.625 -6.75 "/></g></g></g><g fill="#000000" fill-opacity="1"><g transform="translate(172.163517, 326.579271)"><g><path d="M 17.625 -17.109375 L 17.625 0.703125 L 17.53125 0.703125 L 5.5625 -10.109375 L 5.625 0 L 2.203125 0 L 2.203125 -17.78125 L 2.34375 -17.78125 L 14.296875 -6.8125 L 14.234375 -17.109375 Z M 17.625 -17.109375 "/></g></g></g><g fill="#000000" fill-opacity="1"><g transform="translate(201.285466, 326.579271)"><g><path d="M 1.15625 -8.53125 C 1.15625 -10.082031 1.546875 -11.53125 2.328125 -12.875 C 3.117188 -14.226562 4.179688 -15.300781 5.515625 -16.09375 C 6.859375 -16.894531 8.3125 -17.296875 9.875 -17.296875 C 11.445312 -17.296875 12.898438 -16.894531 14.234375 -16.09375 C 15.578125 -15.300781 16.644531 -14.226562 17.4375 -12.875 C 18.238281 -11.53125 18.640625 -10.082031 18.640625 -8.53125 C 18.640625 -6.945312 18.238281 -5.488281 17.4375 -4.15625 C 16.644531 -2.820312 15.578125 -1.765625 14.234375 -0.984375 C 12.898438 -0.203125 11.445312 0.1875 9.875 0.1875 C 8.300781 0.1875 6.847656 -0.203125 5.515625 -0.984375 C 4.179688 -1.765625 3.117188 -2.820312 2.328125 -4.15625 C 1.546875 -5.488281 1.15625 -6.945312 1.15625 -8.53125 Z M 4.65625 -8.53125 C 4.65625 -7.539062 4.890625 -6.625 5.359375 -5.78125 C 5.828125 -4.945312 6.46875 -4.285156 7.28125 -3.796875 C 8.101562 -3.304688 9.007812 -3.0625 10 -3.0625 C 10.957031 -3.0625 11.832031 -3.304688 12.625 -3.796875 C 13.414062 -4.285156 14.035156 -4.941406 14.484375 -5.765625 C 14.929688 -6.597656 15.15625 -7.519531 15.15625 -8.53125 C 15.15625 -9.550781 14.921875 -10.476562 14.453125 -11.3125 C 13.992188 -12.15625 13.363281 -12.820312 12.5625 -13.3125 C 11.769531 -13.800781 10.882812 -14.046875 9.90625 -14.046875 C 8.925781 -14.046875 8.035156 -13.800781 7.234375 -13.3125 C 6.441406 -12.820312 5.8125 -12.15625 5.34375 -11.3125 C 4.882812 -10.476562 4.65625 -9.550781 4.65625 -8.53125 Z M 4.65625 -8.53125 "/></g></g></g><g fill="#000000" fill-opacity="1"><g transform="translate(230.384184, 326.579271)"><g><path d="M 12.578125 -17.109375 L 12.578125 -13.859375 L 8.421875 -13.859375 L 8.421875 0 L 5.046875 0 L 5.046875 -13.859375 L 1.046875 -13.859375 L 1.046875 -17.109375 Z M 12.578125 -17.109375 "/></g></g></g><g fill="#000000" fill-opacity="1"><g transform="translate(253.301787, 326.579271)"><g><path d="M 13.875 -17.109375 L 13.875 -13.859375 L 5.578125 -13.859375 L 5.578125 -10.203125 L 12.921875 -10.203125 L 12.921875 -6.953125 L 5.578125 -6.953125 L 5.578125 -3.25 L 14.203125 -3.25 L 14.203125 0 L 2.203125 0 L 2.203125 -17.109375 Z M 13.875 -17.109375 "/></g></g></g></svg>