<svg xmlns="http://www.w3.org/2000/svg" xmlns:xlink="http://www.w3.org/1999/xlink" width="500" zoomAndPan="magnify" viewBox="0 0 375 374.999991" height="500" preserveAspectRatio="xMidYMid meet" version="1.0"><defs><g/></defs><path fill="#ffffff" d="M 125.917969 250.003906 C 124.425781 249.644531 123.40625 248.804688 122.703125 247.347656 C 121.53125 244.925781 122.226562 242.5 124.550781 240.917969 L 125.5625 240.230469 L 270.414062 240.386719 L 271.273438 241.011719 C 272.613281 241.988281 273.605469 244.21875 273.351562 245.703125 C 273.085938 247.273438 272.101562 248.71875 270.761719 249.507812 L 269.695312 250.136719 L 198.265625 250.179688 C 158.980469 250.207031 126.421875 250.128906 125.917969 250.003906 Z M 99.449219 219.441406 C 97.75 218.46875 97.0625 217.390625 96.898438 215.449219 C 96.71875 213.261719 97.621094 211.5625 99.429688 210.6875 C 100.679688 210.078125 101.15625 210.074219 152.808594 210.152344 C 204.90625 210.230469 204.921875 210.230469 205.765625 210.859375 C 207.386719 212.070312 207.859375 213.019531 207.859375 215.050781 C 207.859375 217.335938 207.046875 218.691406 205.148438 219.550781 C 203.949219 220.097656 201.96875 220.117188 152.269531 220.121094 L 100.640625 220.121094 Z M 129.222656 185.554688 C 125.847656 183.527344 126.023438 178.597656 129.535156 176.898438 C 130.832031 176.269531 130.941406 176.269531 175.746094 176.273438 C 218.882812 176.28125 220.703125 176.304688 221.902344 176.847656 C 223.511719 177.578125 224.523438 179.011719 224.695312 180.808594 C 224.875 182.664062 224.222656 184.179688 222.765625 185.289062 L 221.617188 186.167969 L 130.492188 186.316406 Z M 129.222656 185.554688 " fill-opacity="1" fill-rule="nonzero"/><path fill="#ffffff" d="M 43.765625 253.195312 C 43.808594 253.152344 43.59375 252.316406 43.347656 251.320312 C 40.820312 241.078125 40.085938 237.300781 38.207031 229.726562 C 37.605469 226.878906 36.921875 223.65625 36.683594 222.566406 C 35.675781 217.964844 33.6875 205.332031 33.164062 200.179688 C 32.214844 190.859375 32.273438 178.089844 33.320312 166.628906 C 35.308594 144.875 40.78125 127.25 50.253906 112.101562 C 58.636719 98.703125 70.226562 87.101562 86.324219 76 C 94.488281 70.375 101.152344 67.203125 107.621094 65.867188 C 110.601562 65.25 115.757812 65.257812 118.550781 65.882812 C 121.304688 66.5 124.789062 68.085938 126.898438 69.675781 L 128.519531 70.902344 L 133.3125 69.542969 C 153.402344 63.847656 178.015625 61.410156 202.894531 62.65625 C 217.480469 63.386719 229.414062 65.097656 242.359375 68.3125 L 247.921875 69.695312 L 248.828125 69.046875 C 250.375 67.945312 254.058594 66.398438 256.351562 65.882812 C 259.109375 65.265625 264.414062 65.253906 267.257812 65.855469 C 273.070312 67.085938 279.207031 69.882812 286.152344 74.464844 C 295.609375 80.703125 303.332031 87 310.367188 94.210938 C 322.304688 106.445312 329.851562 118.804688 335.292969 135.042969 C 337.246094 140.871094 339.601562 150.707031 339.601562 153.027344 C 339.601562 153.613281 339.800781 154.796875 340.042969 155.660156 C 340.527344 157.382812 341.210938 162.570312 341.792969 168.957031 C 342.007812 171.332031 342.171875 178.027344 342.179688 184.796875 C 342.191406 197.746094 342.007812 200.066406 340.03125 212.03125 C 336.800781 233.730469 324.683594 276.804688 322.726562 281.480469 C 322.078125 283.039062 319.75 285.203125 318.46875 285.441406 C 317.0625 285.707031 315.199219 285.199219 314.066406 284.246094 C 312.515625 282.941406 312.214844 281.878906 312.207031 277.683594 C 312.203125 274.179688 311.625 260.425781 310.515625 237.492188 C 310.265625 232.382812 309.855469 223.40625 309.601562 217.542969 C 307.8125 176.511719 307.785156 176.128906 306.371094 171.910156 C 304.445312 166.175781 300.382812 161.136719 296.03125 159.082031 C 292.445312 157.386719 290.40625 156.988281 286.152344 157.144531 C 282.933594 157.261719 282.085938 157.414062 279.15625 158.410156 C 275.820312 159.539062 273.171875 160.84375 269 163.40625 C 264.9375 165.902344 262.804688 165.523438 258.6875 161.570312 C 255.984375 158.976562 253.234375 155.21875 251.472656 151.707031 C 250.203125 149.175781 248.535156 143.964844 247.90625 141.445312 C 246.917969 137.5 246.9375 134.464844 247.875 128.089844 C 248.597656 123.179688 250.4375 118.011719 255.492188 105.847656 C 258.679688 98.171875 259.46875 94.519531 258.382812 92.421875 C 258.109375 91.894531 256.085938 89.605469 253.882812 87.335938 C 251.679688 85.066406 249.527344 82.777344 249.09375 82.25 C 248.429688 81.4375 247.714844 81.113281 244.535156 80.171875 C 235 77.34375 224.214844 75.382812 210.753906 74.019531 C 204.027344 73.339844 177.996094 73.226562 171.613281 73.851562 C 153.695312 75.609375 141.335938 78.0625 128.359375 82.445312 L 124.707031 83.679688 L 121.550781 86.796875 C 119.816406 88.511719 117.863281 90.578125 117.210938 91.386719 C 116.144531 92.714844 116.023438 93.035156 116.023438 94.59375 C 116.023438 96.179688 116.867188 100.023438 117.535156 101.488281 C 119.652344 106.121094 124.550781 118.59375 124.550781 119.347656 C 124.550781 119.671875 124.746094 120.242188 124.984375 120.613281 C 125.601562 121.582031 126.917969 127.191406 127.324219 130.578125 C 128.183594 137.765625 126.589844 145.714844 122.929688 152.507812 C 120.898438 156.28125 119.402344 158.308594 116.5 161.214844 C 112.167969 165.554688 110.09375 165.984375 105.90625 163.402344 C 99.03125 159.160156 94.199219 157.375 88.984375 157.148438 C 84.851562 156.972656 82.585938 157.363281 79.492188 158.789062 C 74.347656 161.160156 70.695312 165.4375 68.679688 171.453125 C 67.046875 176.324219 66.988281 177.03125 65.609375 209.621094 C 65.355469 215.652344 65.011719 223.261719 64.84375 226.527344 C 64.558594 232.140625 63.433594 256.886719 62.703125 273.589844 C 62.304688 282.753906 62.113281 283.390625 59.359375 284.804688 C 57.449219 285.785156 56.097656 285.742188 54.148438 284.648438 C 53.109375 284.0625 52.90625 283.722656 51.933594 280.929688 C 51.007812 278.273438 49.019531 271.671875 47.351562 265.746094 " fill-opacity="1" fill-rule="nonzero"/><path fill="#ffffff" d="M 221.816406 218.496094 L 239.445312 200.882812 C 258.441406 181.902344 257.828125 182.417969 260.507812 183.148438 C 262.191406 183.609375 265.664062 186.953125 266.175781 188.652344 C 266.957031 191.265625 267.371094 190.773438 248.363281 209.8125 L 230.96875 227.238281 C 225.519531 229.152344 221.277344 230.769531 219.964844 229.433594 C 218.652344 228.09375 220.058594 224.136719 221.816406 218.496094 Z M 221.816406 218.496094 " fill-opacity="1" fill-rule="nonzero"/><g fill="#ffffff" fill-opacity="1"><g transform="translate(106.172035, 327.253925)"><g><path d="M 7.394531 -17.113281 C 9.484375 -17.113281 11.105469 -16.597656 12.253906 -15.566406 C 13.398438 -14.535156 13.972656 -13.128906 13.972656 -11.347656 C 13.972656 -10.324219 13.777344 -9.367188 13.378906 -8.476562 C 12.984375 -7.582031 12.34375 -6.851562 11.449219 -6.277344 C 10.558594 -5.703125 9.410156 -5.417969 7.996094 -5.417969 L 5.578125 -5.417969 L 5.578125 0 L 2.207031 0 L 2.207031 -17.113281 Z M 7.976562 -8.695312 C 8.609375 -8.695312 9.121094 -8.839844 9.507812 -9.125 C 9.898438 -9.414062 10.175781 -9.75 10.347656 -10.136719 C 10.515625 -10.523438 10.601562 -10.898438 10.601562 -11.253906 C 10.601562 -11.859375 10.421875 -12.441406 10.066406 -13.007812 C 9.710938 -13.574219 9.019531 -13.855469 7.996094 -13.855469 L 5.578125 -13.855469 L 5.578125 -8.695312 Z M 7.976562 -8.695312 "/></g></g></g><g fill="#ffffff" fill-opacity="1"><g transform="translate(130.259523, 327.253925)"><g><path d="M 10.671875 -3.347656 L 5 -3.347656 L 3.605469 0 L 0.277344 0 L 7.996094 -17.785156 L 8.183594 -17.785156 L 15.902344 0 L 11.996094 0 Z M 9.554688 -6.183594 L 7.90625 -10.347656 L 6.183594 -6.183594 Z M 9.554688 -6.183594 "/></g></g></g><g fill="#ffffff" fill-opacity="1"><g transform="translate(155.742, 327.253925)"><g><path d="M 1.253906 -6.742188 L 5.625 -6.742188 L 5.625 -3.90625 L 1.253906 -3.90625 Z M 1.253906 -6.742188 "/></g></g></g><g fill="#ffffff" fill-opacity="1"><g transform="translate(172.157004, 327.253925)"><g><path d="M 17.625 -17.113281 L 17.625 0.699219 L 17.53125 0.699219 L 5.558594 -10.113281 L 5.625 0 L 2.207031 0 L 2.207031 -17.785156 L 2.347656 -17.785156 L 14.296875 -6.8125 L 14.230469 -17.113281 Z M 17.625 -17.113281 "/></g></g></g><g fill="#ffffff" fill-opacity="1"><g transform="translate(201.289723, 327.253925)"><g><path d="M 1.164062 -8.53125 C 1.164062 -10.082031 1.554688 -11.53125 2.335938 -12.878906 C 3.121094 -14.230469 4.179688 -15.300781 5.523438 -16.101562 C 6.863281 -16.898438 8.316406 -17.296875 9.882812 -17.296875 C 11.445312 -17.296875 12.898438 -16.898438 14.242188 -16.101562 C 15.582031 -15.300781 16.652344 -14.230469 17.449219 -12.878906 C 18.246094 -11.53125 18.648438 -10.082031 18.648438 -8.53125 C 18.648438 -6.953125 18.246094 -5.496094 17.449219 -4.160156 C 16.652344 -2.828125 15.582031 -1.769531 14.242188 -0.988281 C 12.898438 -0.207031 11.445312 0.1875 9.882812 0.1875 C 8.300781 0.1875 6.84375 -0.207031 5.511719 -0.988281 C 4.175781 -1.769531 3.121094 -2.828125 2.335938 -4.160156 C 1.554688 -5.496094 1.164062 -6.953125 1.164062 -8.53125 Z M 4.648438 -8.53125 C 4.648438 -7.539062 4.886719 -6.625 5.359375 -5.789062 C 5.832031 -4.953125 6.476562 -4.289062 7.289062 -3.800781 C 8.101562 -3.3125 9.003906 -3.070312 9.996094 -3.070312 C 10.957031 -3.070312 11.835938 -3.3125 12.625 -3.800781 C 13.414062 -4.289062 14.035156 -4.949219 14.484375 -5.777344 C 14.933594 -6.605469 15.160156 -7.523438 15.160156 -8.53125 C 15.160156 -9.554688 14.925781 -10.484375 14.460938 -11.324219 C 13.996094 -12.160156 13.363281 -12.824219 12.566406 -13.3125 C 11.769531 -13.800781 10.882812 -14.042969 9.90625 -14.042969 C 8.929688 -14.042969 8.039062 -13.800781 7.242188 -13.3125 C 6.445312 -12.824219 5.8125 -12.160156 5.347656 -11.324219 C 4.882812 -10.484375 4.648438 -9.554688 4.648438 -8.53125 Z M 4.648438 -8.53125 "/></g></g></g><g fill="#ffffff" fill-opacity="1"><g transform="translate(230.399188, 327.253925)"><g><path d="M 12.578125 -17.113281 L 12.578125 -13.855469 L 8.417969 -13.855469 L 8.417969 0 L 5.046875 0 L 5.046875 -13.855469 L 1.046875 -13.855469 L 1.046875 -17.113281 Z M 12.578125 -17.113281 "/></g></g></g><g fill="#ffffff" fill-opacity="1"><g transform="translate(253.324174, 327.253925)"><g><path d="M 13.878906 -17.113281 L 13.878906 -13.855469 L 5.578125 -13.855469 L 5.578125 -10.207031 L 12.925781 -10.207031 L 12.925781 -6.953125 L 5.578125 -6.953125 L 5.578125 -3.253906 L 14.207031 -3.253906 L 14.207031 0 L 2.207031 0 L 2.207031 -17.113281 Z M 13.878906 -17.113281 "/></g></g></g></svg>